<svg width="371" height="355" viewBox="0 0 371 355" fill="none" xmlns="http://www.w3.org/2000/svg">
<g filter="url(#filter0_b_172_2205)">
<rect x="18" y="134" width="331" height="215" fill="white" fill-opacity="0.2"/>
<rect x="18.5" y="134.5" width="330" height="214" stroke="white"/>
</g>
<path fill-rule="evenodd" clip-rule="evenodd" d="M73.9842 150.013C71.3477 130.438 85.0762 112.437 104.652 109.8C122.361 107.415 138.78 118.427 143.709 135.069C148.348 131.289 153.97 128.62 160.243 127.542C160.744 134.094 163.094 140.57 167.401 146.149C179.215 161.451 201.276 164.211 216.684 152.316C218.214 151.134 219.618 149.854 220.902 148.487L224.513 153.165C222.871 154.057 221.272 155.094 219.742 156.276C204.334 168.172 201.422 190.213 213.237 205.515C225.051 220.817 247.112 223.578 262.519 211.682C277.693 199.967 280.748 178.41 269.552 163.143C271.782 162.866 273.99 162.801 276.156 162.932C282.358 169.039 290.451 172.423 298.763 172.876C304.376 178.276 308.271 185.539 309.392 193.858C312.028 213.433 298.3 231.434 278.724 234.071C274.153 234.687 269.665 234.404 265.442 233.362C263.817 249.442 251.368 262.922 234.644 265.175C227.845 266.09 221.235 265.028 215.397 262.442C215.043 279.77 202.122 294.734 184.414 297.119C177.615 298.035 171.005 296.973 165.167 294.387C164.813 311.715 151.893 326.679 134.184 329.064C114.608 331.7 96.606 317.973 93.9695 298.397C92.673 288.772 95.3345 279.538 100.701 272.312C93.6138 266.762 88.6042 258.562 87.3077 248.936C86.0113 239.31 88.6728 230.077 94.0389 222.85C86.952 217.301 81.9424 209.101 80.646 199.475C79.3495 189.849 82.011 180.616 87.3772 173.389C80.2902 167.839 75.2806 159.639 73.9842 150.013ZM298.763 172.876C306.921 173.32 315.289 170.94 322.285 165.539C337.692 153.643 340.604 131.602 328.79 116.3C316.982 100.984 294.921 98.2235 279.514 110.119C277.924 111.347 276.464 112.687 275.143 114.117L271.486 109.381C273.204 108.464 274.87 107.391 276.46 106.164C291.867 94.2683 294.779 72.2267 282.965 56.9247C271.151 41.6228 249.09 38.8623 233.682 50.758C218.275 62.6537 215.363 84.6953 227.177 99.9973C228.359 101.528 229.65 102.932 231.019 104.216L226.298 107.86C225.408 106.207 224.375 104.612 223.189 103.076C211.375 87.7743 189.314 85.0138 173.906 96.9095C164.117 104.468 159.372 116.122 160.243 127.542C160.675 127.467 161.11 127.401 161.547 127.342C179.256 124.957 195.675 135.969 200.601 152.586C205.559 148.546 211.64 145.774 218.439 144.859C235.163 142.606 250.733 152.3 256.556 167.389C260.353 165.267 264.607 163.807 269.177 163.191C269.302 163.175 269.427 163.158 269.552 163.143C269.379 162.908 269.204 162.675 269.025 162.443C267.814 160.875 266.493 159.443 265.083 158.14L269.836 154.47C270.74 156.164 271.791 157.804 273.002 159.372C273.986 160.646 275.04 161.833 276.156 162.932C284.792 163.456 292.76 167.1 298.763 172.876Z" fill="#FF6EFD"/>
<rect x="136.5" y="163.5" width="165" height="153" fill="#1C39FF" stroke="white" stroke-width="3"/>
<rect x="136.5" y="163.5" width="165" height="43" fill="#1C39FF" stroke="white" stroke-width="3"/>
<rect x="239" y="205" width="64" height="113" fill="white"/>
<rect x="240.5" y="284.5" width="61" height="32" fill="#1C39FF" stroke="white" stroke-width="3"/>
<line x1="18" y1="132.5" x2="349" y2="132.5" stroke="white" stroke-width="3"/>
<line x1="18" y1="347.5" x2="349" y2="347.5" stroke="white" stroke-width="3"/>
<path d="M251.54 307V296.7H248.66V295.82C249.727 295.767 250.493 295.567 250.96 295.22C251.44 294.86 251.74 294.193 251.86 293.22H252.84V307H251.54ZM260.383 306.16C261.61 306.16 262.536 305.633 263.163 304.58C263.79 303.527 264.103 302.047 264.103 300.14C264.103 298.273 263.776 296.8 263.123 295.72C262.483 294.64 261.57 294.1 260.383 294.1C259.183 294.1 258.256 294.633 257.603 295.7C256.963 296.753 256.643 298.233 256.643 300.14C256.643 302.007 256.963 303.48 257.603 304.56C258.256 305.627 259.183 306.16 260.383 306.16ZM260.363 307.28C258.763 307.28 257.516 306.64 256.623 305.36C255.743 304.08 255.303 302.34 255.303 300.14C255.303 297.927 255.756 296.187 256.663 294.92C257.583 293.64 258.823 293 260.383 293C261.943 293 263.176 293.633 264.083 294.9C264.99 296.167 265.443 297.913 265.443 300.14C265.443 302.353 264.996 304.1 264.103 305.38C263.223 306.647 261.976 307.28 260.363 307.28ZM270.251 307V292.7H271.491V301.64L276.631 296.66H278.211L274.251 300.4L278.691 307H277.251L273.391 301.2L271.491 303.02V307H270.251ZM283.1 310.62C281.873 310.62 280.9 310.367 280.18 309.86C279.46 309.367 279.053 308.72 278.96 307.92H280.16C280.36 309.04 281.326 309.6 283.06 309.6C284.14 309.6 284.946 309.34 285.48 308.82C286.026 308.3 286.3 307.573 286.3 306.64V305H286.24C285.453 306.2 284.36 306.8 282.96 306.8C281.613 306.8 280.533 306.327 279.72 305.38C278.92 304.42 278.52 303.173 278.52 301.64C278.52 300.027 278.946 298.76 279.8 297.84C280.653 296.907 281.706 296.44 282.96 296.44C284.413 296.44 285.506 297.047 286.24 298.26H286.3V296.66H287.52V306.6C287.52 307.747 287.2 308.673 286.56 309.38C285.773 310.207 284.62 310.62 283.1 310.62ZM283.02 305.76C284.14 305.76 284.98 305.393 285.54 304.66C286.1 303.913 286.38 302.9 286.38 301.62C286.38 300.353 286.093 299.347 285.52 298.6C284.96 297.853 284.133 297.48 283.04 297.48C282.026 297.48 281.233 297.86 280.66 298.62C280.086 299.367 279.8 300.38 279.8 301.66C279.8 302.887 280.073 303.88 280.62 304.64C281.166 305.387 281.966 305.76 283.02 305.76Z" fill="white"/>
<path d="M164.64 197V178.36H161.64V176.32H164.64V172.64C164.64 169.68 166.253 168.2 169.48 168.2C169.587 168.2 169.827 168.213 170.2 168.24C170.6 168.24 170.827 168.24 170.88 168.24V170.36H169.8C168.787 170.36 168.08 170.56 167.68 170.96C167.28 171.333 167.08 171.92 167.08 172.72V176.32H170.92V178.36H167.08V197H164.64ZM173.64 197V168.4H176.12V197H173.64ZM188.905 195.44C191.118 195.44 192.838 194.613 194.065 192.96C195.291 191.307 195.905 189.213 195.905 186.68C195.905 184.147 195.291 182.053 194.065 180.4C192.838 178.747 191.118 177.92 188.905 177.92C186.665 177.92 184.931 178.747 183.705 180.4C182.478 182.053 181.865 184.147 181.865 186.68C181.865 189.213 182.478 191.307 183.705 192.96C184.931 194.613 186.665 195.44 188.905 195.44ZM188.905 197.52C185.971 197.52 183.638 196.507 181.905 194.48C180.171 192.427 179.305 189.827 179.305 186.68C179.305 183.533 180.171 180.947 181.905 178.92C183.638 176.867 185.971 175.84 188.905 175.84C191.811 175.84 194.118 176.867 195.825 178.92C197.558 180.947 198.425 183.533 198.425 186.68C198.425 189.827 197.558 192.427 195.825 194.48C194.118 196.507 191.811 197.52 188.905 197.52ZM205.451 197L199.291 176.32H201.891L205.491 189.12L206.811 194.52H206.891C207.424 192.307 207.864 190.573 208.211 189.32L211.731 176.32H214.411L217.811 189.32L219.051 194.52H219.131C219.691 192.253 220.171 190.453 220.571 189.12L224.411 176.32H226.931L220.411 197H217.691L214.131 183.8L213.051 179.12H212.971C212.597 180.933 212.237 182.493 211.891 183.8L208.251 197H205.451ZM237.382 197.52C234.369 197.52 232.009 196.52 230.302 194.52C228.596 192.493 227.742 189.88 227.742 186.68C227.742 183.533 228.609 180.947 230.342 178.92C232.076 176.867 234.356 175.84 237.182 175.84C238.782 175.84 240.169 176.147 241.342 176.76C242.542 177.373 243.476 178.227 244.142 179.32C244.809 180.413 245.289 181.613 245.582 182.92C245.902 184.2 246.062 185.6 246.062 187.12H230.302C230.356 189.573 230.982 191.573 232.182 193.12C233.382 194.64 235.116 195.4 237.382 195.4C240.529 195.4 242.542 193.853 243.422 190.76H245.822C245.369 192.84 244.409 194.493 242.942 195.72C241.502 196.92 239.649 197.52 237.382 197.52ZM230.342 185.16H243.462C243.409 183 242.849 181.253 241.782 179.92C240.742 178.56 239.209 177.88 237.182 177.88C235.182 177.88 233.596 178.547 232.422 179.88C231.276 181.213 230.582 182.973 230.342 185.16ZM249.135 197V176.32H251.615V180.16H251.695C253.108 177.493 255.215 176.16 258.015 176.16C258.255 176.16 258.481 176.187 258.695 176.24V178.68C257.068 178.413 255.601 178.747 254.295 179.68C252.508 181.013 251.615 182.867 251.615 185.24V197H249.135ZM268.484 197.56C265.817 197.56 263.751 196.92 262.284 195.64C260.844 194.36 260.057 192.667 259.924 190.56H262.444C262.791 193.813 264.817 195.44 268.524 195.44C270.204 195.44 271.497 195.08 272.404 194.36C273.311 193.64 273.764 192.667 273.764 191.44C273.764 190.32 273.377 189.493 272.604 188.96C271.857 188.427 270.404 187.92 268.244 187.44C266.991 187.147 265.991 186.88 265.244 186.64C264.497 186.4 263.724 186.067 262.924 185.64C262.151 185.187 261.577 184.627 261.204 183.96C260.857 183.267 260.684 182.44 260.684 181.48C260.684 179.773 261.351 178.413 262.684 177.4C264.017 176.387 265.751 175.88 267.884 175.88C272.471 175.88 275.031 177.92 275.564 182H273.084C272.791 179.28 271.057 177.92 267.884 177.92C266.337 177.92 265.164 178.24 264.364 178.88C263.564 179.52 263.164 180.347 263.164 181.36C263.164 182.453 263.591 183.24 264.444 183.72C265.297 184.173 266.844 184.667 269.084 185.2C271.537 185.707 273.337 186.387 274.484 187.24C275.657 188.067 276.244 189.453 276.244 191.4C276.244 193.267 275.537 194.76 274.124 195.88C272.737 197 270.857 197.56 268.484 197.56Z" fill="white"/>
<path d="M169 287V293H163" stroke="white" stroke-width="2" stroke-linecap="round" stroke-linejoin="round"/>
<path d="M147 303V297H153" stroke="white" stroke-width="2" stroke-linecap="round" stroke-linejoin="round"/>
<path d="M149.51 292C150.017 290.567 150.879 289.285 152.015 288.275C153.152 287.266 154.525 286.56 156.008 286.224C157.491 285.889 159.035 285.934 160.495 286.357C161.956 286.779 163.285 287.565 164.36 288.64L169 293M147 297L151.64 301.36C152.715 302.435 154.044 303.221 155.505 303.643C156.965 304.066 158.509 304.111 159.992 303.776C161.475 303.44 162.848 302.735 163.985 301.725C165.121 300.715 165.983 299.433 166.49 298" stroke="white" stroke-width="2" stroke-linecap="round" stroke-linejoin="round"/>
<path fill-rule="evenodd" clip-rule="evenodd" d="M190.346 243.072C191.03 242.955 191.733 242.895 192.449 242.895C199.381 242.895 205 248.513 204.995 255.449C204.995 262.381 199.377 268 192.444 268C189.101 268 186.064 266.694 183.815 264.564C185.946 262.893 188.632 261.897 191.551 261.897C192.24 261.897 192.917 261.953 193.574 262.06V259.94C192.914 260.047 192.24 260.103 191.551 260.103C184.619 260.103 179 254.484 179 247.551C179 240.619 184.619 235 191.551 235C194.895 235 197.933 236.307 200.183 238.438C198.051 240.108 195.366 241.103 192.449 241.103C191.733 241.103 191.03 241.042 190.346 240.926V243.072ZM200.183 238.438C203.116 236.141 205 232.566 205 228.551C205 221.619 199.381 216 192.449 216C185.516 216 179.897 221.619 179.897 228.551C179.897 229.245 179.955 229.926 180.062 230.591H177.938C178.047 229.926 178.103 229.247 178.103 228.551C178.103 221.619 172.484 216 165.551 216C158.619 216 153 221.619 153 228.551C153 235.484 158.619 241.103 165.551 241.103C166.24 241.103 166.914 241.047 167.574 240.94V243.06C166.917 242.953 166.24 242.897 165.551 242.897C158.619 242.897 153 248.516 153 255.449C153 262.381 158.619 268 165.551 268C172.484 268 178.103 262.381 178.103 255.449C178.103 254.738 178.042 254.042 177.928 253.363H180.067C179.953 254.042 179.892 254.738 179.892 255.449C179.892 259.039 181.399 262.276 183.815 264.564C180.883 266.861 179 270.435 179 274.449C179 281.381 184.619 287 191.551 287C198.484 287 204.103 281.381 204.103 274.449C204.103 273.738 204.042 273.042 203.928 272.363H206.067C205.953 273.042 205.892 273.738 205.892 274.449C205.892 281.381 211.511 287 218.444 287C225.377 287 230.995 281.381 230.995 274.449C231 267.513 225.381 261.895 218.449 261.895C217.733 261.895 217.03 261.955 216.346 262.072V259.926C217.03 260.042 217.733 260.103 218.449 260.103C225.381 260.103 231 254.484 231 247.551C231 240.619 225.381 235 218.449 235C211.516 235 205.897 240.619 205.897 247.551C205.897 248.245 205.955 248.926 206.062 249.591H203.938C204.047 248.926 204.103 248.247 204.103 247.551C204.103 243.962 202.597 240.726 200.183 238.438Z" fill="white"/>
<defs>
<filter id="filter0_b_172_2205" x="14" y="130" width="339" height="223" filterUnits="userSpaceOnUse" color-interpolation-filters="sRGB">
<feFlood flood-opacity="0" result="BackgroundImageFix"/>
<feGaussianBlur in="BackgroundImageFix" stdDeviation="2"/>
<feComposite in2="SourceAlpha" operator="in" result="effect1_backgroundBlur_172_2205"/>
<feBlend mode="normal" in="SourceGraphic" in2="effect1_backgroundBlur_172_2205" result="shape"/>
</filter>
</defs>
</svg>
