<svg width="360" height="348" viewBox="0 0 360 348" fill="none" xmlns="http://www.w3.org/2000/svg">
<path fill-rule="evenodd" clip-rule="evenodd" d="M105.324 178.097C95.6597 176.338 73.4279 172.294 67.6919 183.427C61.4951 195.454 79.53 207.16 84.4074 210.326C84.8444 210.609 85.1758 210.824 85.3747 210.965C106.732 225.867 129.347 236.135 153.221 241.405C153.004 241.697 152.792 241.995 152.587 242.298C144.514 254.211 141.481 293.62 153.494 301.76C165.507 309.9 201.318 291.995 209.062 280.568C213.278 274.347 214.177 266.386 211.24 258.476C214.545 259.364 217.892 259.383 221.332 258.155C225.98 256.488 229.7 253.49 233.089 250.008C233.607 249.476 233.263 249.229 232.935 248.993C232.869 248.945 232.803 248.898 232.745 248.849C230.145 246.685 227.354 244.812 224.24 243.451C223.751 243.239 223.263 243.046 222.775 242.872C247.861 238.567 270.973 228.81 291.094 212.195C302.159 203.072 311.027 192.245 316.379 178.794C323.426 161.088 322.399 143.29 316.757 125.411C316.18 123.557 316.218 121.224 316.794 119.368C318.773 113.013 320.899 106.699 323.023 100.387C323.866 97.8828 324.709 95.3791 325.542 92.8732C326.834 88.9668 326.084 87.642 322.136 86.8946C317.395 85.982 312.632 85.1066 307.87 84.2311C304.398 83.5965 303.251 84.3353 302.416 87.8104C301.783 90.4411 301.162 93.075 300.541 95.7089C299.299 100.977 298.057 106.244 296.714 111.487C296.01 114.197 295.026 116.895 293.719 119.367C284.978 135.823 271.912 148.219 256.3 157.946C235.369 171.011 212.302 178.065 187.846 180.49C161.556 183.091 135.324 181.151 109.116 178.719C108.354 178.648 107.036 178.408 105.324 178.097ZM222.775 242.872C221.929 242.571 221.084 242.328 220.241 242.146C221.62 239.858 222.688 237.388 223.59 234.824C223.84 234.123 223.423 234.043 223.024 233.968C222.944 233.952 222.865 233.937 222.792 233.918C219.519 233.051 216.205 232.523 212.799 232.6C211.52 232.63 210.288 232.763 209.107 232.995C210.12 228.842 209.973 224.64 209.37 220.407C209.264 219.667 208.852 219.795 208.462 219.916C208.387 219.939 208.313 219.962 208.242 219.979C204.937 220.732 201.749 221.806 198.764 223.449C197.862 223.947 197.02 224.486 196.236 225.071C195.933 223.52 195.424 221.97 194.718 220.424C193.31 217.327 191.39 214.568 189.187 212.001C189.138 211.944 189.09 211.88 189.042 211.815C188.801 211.488 188.549 211.148 188.026 211.675C186.261 213.454 184.63 215.323 183.24 217.356C182.413 216.04 181.4 214.793 180.213 213.617C177.795 211.229 175.025 209.334 172.048 207.718C171.984 207.683 171.918 207.641 171.852 207.598C171.51 207.378 171.149 207.145 170.843 207.828C168.87 212.269 167.46 216.833 167.635 221.768C167.778 225.725 169.242 229.043 171.61 231.94C163.964 232.274 157.497 235.664 153.221 241.405C172.27 245.611 192.122 246.634 212.776 244.291C216.142 243.91 219.476 243.438 222.775 242.872Z" fill="#FED700"/>
<g filter="url(#filter0_b_172_2178)">
<rect y="133" width="331" height="215" fill="white" fill-opacity="0.2"/>
<rect x="0.5" y="133.5" width="330" height="214" stroke="white"/>
</g>
<rect x="24.5" y="162.5" width="165" height="153" fill="#1C39FF" stroke="white" stroke-width="3"/>
<rect x="72.5" y="162.5" width="117" height="43" fill="#1C39FF" stroke="white" stroke-width="3"/>
<rect x="24.5" y="300.5" width="79" height="15" fill="white" stroke="white" stroke-width="3"/>
<rect x="128.5" y="299.5" width="61" height="16" fill="#1C39FF" stroke="white" stroke-width="3"/>
<rect x="139.5" y="299.5" width="50" height="16" fill="#1C39FF" stroke="white" stroke-width="3"/>
<rect x="24.5" y="205.5" width="165" height="94" fill="#1C39FF" stroke="white" stroke-width="3"/>
<line y1="131.5" x2="331" y2="131.5" stroke="white" stroke-width="3"/>
<line y1="346.5" x2="331" y2="346.5" stroke="white" stroke-width="3"/>
<path d="M88.34 189.28C86.94 189.28 85.78 188.873 84.86 188.06C83.9533 187.247 83.4933 186.147 83.48 184.76H84.78C84.82 185.84 85.1533 186.673 85.78 187.26C86.42 187.847 87.2667 188.14 88.32 188.14C89.3467 188.14 90.1467 187.873 90.72 187.34C91.3067 186.807 91.6 186.073 91.6 185.14C91.6 184.233 91.3 183.527 90.7 183.02C90.1133 182.513 89.2867 182.26 88.22 182.26H87.26V181.2H88.2C89.1333 181.2 89.8533 180.973 90.36 180.52C90.88 180.067 91.14 179.447 91.14 178.66C91.14 177.847 90.8733 177.213 90.34 176.76C89.82 176.293 89.14 176.06 88.3 176.06C87.34 176.06 86.58 176.367 86.02 176.98C85.4733 177.593 85.2 178.38 85.2 179.34H83.92C83.9333 178.047 84.3333 177 85.12 176.2C85.9067 175.4 86.98 175 88.34 175C89.5133 175 90.4867 175.333 91.26 176C92.0333 176.653 92.42 177.54 92.42 178.66C92.42 180.1 91.7333 181.093 90.36 181.64V181.7C92.0667 182.247 92.92 183.427 92.92 185.24C92.92 186.48 92.4933 187.467 91.64 188.2C90.8 188.92 89.7 189.28 88.34 189.28ZM98.6259 189.28C97.3326 189.28 96.2593 188.913 95.4059 188.18C94.5659 187.433 94.1326 186.473 94.1059 185.3H95.3859C95.6259 187.167 96.6993 188.1 98.6059 188.1C99.6059 188.1 100.393 187.78 100.966 187.14C101.553 186.487 101.846 185.633 101.846 184.58C101.846 183.54 101.553 182.713 100.966 182.1C100.379 181.487 99.6193 181.18 98.6859 181.18C97.3259 181.18 96.3259 181.647 95.6859 182.58H94.4459L95.6659 175.3H102.486V176.46H96.6059L95.8459 181.14H95.8859C96.6859 180.407 97.6926 180.04 98.9059 180.04C100.093 180.04 101.099 180.447 101.926 181.26C102.753 182.073 103.166 183.193 103.166 184.62C103.166 186.007 102.746 187.133 101.906 188C101.079 188.853 99.9859 189.28 98.6259 189.28ZM107.868 189V174.7H109.108V183.64L114.248 178.66H115.828L111.868 182.4L116.308 189H114.868L111.008 183.2L109.108 185.02V189H107.868ZM120.717 192.62C119.49 192.62 118.517 192.367 117.797 191.86C117.077 191.367 116.67 190.72 116.577 189.92H117.777C117.977 191.04 118.943 191.6 120.677 191.6C121.757 191.6 122.563 191.34 123.097 190.82C123.643 190.3 123.917 189.573 123.917 188.64V187H123.857C123.07 188.2 121.977 188.8 120.577 188.8C119.23 188.8 118.15 188.327 117.337 187.38C116.537 186.42 116.137 185.173 116.137 183.64C116.137 182.027 116.563 180.76 117.417 179.84C118.27 178.907 119.323 178.44 120.577 178.44C122.03 178.44 123.123 179.047 123.857 180.26H123.917V178.66H125.137V188.6C125.137 189.747 124.817 190.673 124.177 191.38C123.39 192.207 122.237 192.62 120.717 192.62ZM120.637 187.76C121.757 187.76 122.597 187.393 123.157 186.66C123.717 185.913 123.997 184.9 123.997 183.62C123.997 182.353 123.71 181.347 123.137 180.6C122.577 179.853 121.75 179.48 120.657 179.48C119.643 179.48 118.85 179.86 118.277 180.62C117.703 181.367 117.417 182.38 117.417 183.66C117.417 184.887 117.69 185.88 118.237 186.64C118.783 187.387 119.583 187.76 120.637 187.76Z" fill="white"/>
<path d="M37.64 266V247.36H34.64V245.32H37.64V241.64C37.64 238.68 39.2533 237.2 42.48 237.2C42.5867 237.2 42.8267 237.213 43.2 237.24C43.6 237.24 43.8267 237.24 43.88 237.24V239.36H42.8C41.7867 239.36 41.08 239.56 40.68 239.96C40.28 240.333 40.08 240.92 40.08 241.72V245.32H43.92V247.36H40.08V266H37.64ZM46.8222 266V245.32H49.3022V249.16H49.3822C50.7955 246.493 52.9022 245.16 55.7022 245.16C55.9422 245.16 56.1689 245.187 56.3822 245.24V247.68C54.7555 247.413 53.2889 247.747 51.9822 248.68C50.1955 250.013 49.3022 251.867 49.3022 254.24V266H46.8222ZM65.7669 266.48C63.7402 266.48 62.1002 265.907 60.8469 264.76C59.5935 263.587 58.9669 261.973 58.9669 259.92V245.32H61.4469V259.76C61.4469 261.28 61.8735 262.44 62.7269 263.24C63.5802 264.013 64.7802 264.4 66.3269 264.4C68.0869 264.4 69.5269 263.813 70.6469 262.64C71.7669 261.467 72.3269 260 72.3269 258.24V245.32H74.7669V266H72.3269V262.96H72.2469C71.4202 264.08 70.5135 264.947 69.5269 265.56C68.5402 266.173 67.2869 266.48 65.7669 266.48ZM79.0116 266V245.32H81.4916V266H79.0116ZM79.0116 240.92V237.4H81.4916V240.92H79.0116ZM91.3694 266.16C88.7294 266.16 87.4094 264.92 87.4094 262.44V247.36H84.2894V245.32H87.4094V238.96H89.8894V245.32H93.7294V247.36H89.8894V262.04C89.8894 262.76 90.0494 263.267 90.3694 263.56C90.6894 263.853 91.196 264 91.8894 264C92.5027 264 93.0494 263.893 93.5294 263.68H93.6494V265.8C92.9827 266.04 92.2227 266.16 91.3694 266.16ZM104.023 266.56C101.356 266.56 99.2898 265.92 97.8231 264.64C96.3831 263.36 95.5965 261.667 95.4631 259.56H97.9831C98.3298 262.813 100.356 264.44 104.063 264.44C105.743 264.44 107.036 264.08 107.943 263.36C108.85 262.64 109.303 261.667 109.303 260.44C109.303 259.32 108.916 258.493 108.143 257.96C107.396 257.427 105.943 256.92 103.783 256.44C102.53 256.147 101.53 255.88 100.783 255.64C100.036 255.4 99.2631 255.067 98.4631 254.64C97.6898 254.187 97.1165 253.627 96.7431 252.96C96.3965 252.267 96.2231 251.44 96.2231 250.48C96.2231 248.773 96.8898 247.413 98.2231 246.4C99.5565 245.387 101.29 244.88 103.423 244.88C108.01 244.88 110.57 246.92 111.103 251H108.623C108.33 248.28 106.596 246.92 103.423 246.92C101.876 246.92 100.703 247.24 99.9031 247.88C99.1031 248.52 98.7031 249.347 98.7031 250.36C98.7031 251.453 99.1298 252.24 99.9831 252.72C100.836 253.173 102.383 253.667 104.623 254.2C107.076 254.707 108.876 255.387 110.023 256.24C111.196 257.067 111.783 258.453 111.783 260.4C111.783 262.267 111.076 263.76 109.663 264.88C108.276 266 106.396 266.56 104.023 266.56Z" fill="white"/>
<path d="M60 176V182H54" stroke="white" stroke-width="2" stroke-linecap="round" stroke-linejoin="round"/>
<path d="M38 192V186H44" stroke="white" stroke-width="2" stroke-linecap="round" stroke-linejoin="round"/>
<path d="M40.51 181C41.0172 179.567 41.8791 178.285 43.0155 177.275C44.1518 176.266 45.5255 175.56 47.0083 175.224C48.4911 174.889 50.0348 174.934 51.4952 175.357C52.9556 175.779 54.2853 176.565 55.36 177.64L60 182M38 186L42.64 190.36C43.7147 191.435 45.0444 192.221 46.5048 192.643C47.9652 193.066 49.5089 193.111 50.9917 192.776C52.4745 192.44 53.8482 191.735 54.9845 190.725C56.1209 189.715 56.9828 188.433 57.49 187" stroke="white" stroke-width="2" stroke-linecap="round" stroke-linejoin="round"/>
<path fill-rule="evenodd" clip-rule="evenodd" d="M150.214 220.955C150.474 222.744 151.015 224.435 151.82 226.043C151.848 226.105 151.876 226.166 151.905 226.227L151.905 226.227L151.905 226.227L151.905 226.227L151.905 226.227C151.976 226.378 152.046 226.529 152.105 226.688C152.234 227.052 152.397 227.064 152.678 226.869C153.976 225.964 155.213 224.988 156.24 223.732C157.667 221.987 158.508 219.992 158.397 217.564C158.279 215.084 157.445 212.825 156.35 210.642C156.181 210.309 156.024 210.433 155.874 210.55C155.845 210.573 155.815 210.596 155.786 210.615C154.469 211.493 153.258 212.505 152.231 213.759C150.563 215.794 149.805 218.15 150.214 220.955ZM155.731 225.68C154.495 227.087 153.752 228.782 153.36 230.802C153.282 230.72 153.216 230.653 153.158 230.593L153.157 230.592L153.157 230.592C153.078 230.51 153.014 230.443 152.949 230.374C151.269 228.565 149.284 227.442 146.957 227.145C144.698 226.857 142.615 227.423 140.608 228.403C136.411 230.456 134.415 234.054 134.41 239.041C134.41 242.157 135.179 245.138 136.191 248.078C136.326 248.474 136.468 248.865 136.615 249.253C136.399 249.209 136.179 249.173 135.957 249.145C133.698 248.857 131.614 249.423 129.608 250.403C125.41 252.456 123.415 256.054 123.41 261.041C123.409 264.157 124.179 267.138 125.19 270.078C126.515 273.932 128.379 277.434 131.009 280.469C133.509 283.35 136.275 285.823 139.718 287.239C141.4 287.931 143.122 288.228 144.879 287.866C147.274 287.373 148.919 285.797 150.171 283.677C150.4 283.29 150.574 283.161 150.989 283.437C151.395 283.704 151.847 283.902 152.293 284.087C155.171 285.273 157.827 284.983 160.206 282.998C162.408 281.162 163.727 278.639 164.72 275.883C166.267 271.593 166.769 267.224 166.376 262.786C168.087 262.83 169.702 262.253 171.206 260.998C173.408 259.162 174.727 256.639 175.721 253.883C178.018 247.513 178.011 240.967 176.188 234.282C175.498 231.754 174.563 229.35 173.069 227.213C171.328 224.722 169.102 223.081 166.26 222.53C164.449 222.18 162.664 222.276 160.896 222.686C158.89 223.152 157.137 224.08 155.731 225.68ZM166.376 262.786C166.185 260.634 165.783 258.465 165.188 256.282C164.498 253.754 163.563 251.35 162.069 249.213C160.328 246.722 158.102 245.081 155.26 244.53C153.448 244.18 151.664 244.276 149.896 244.686C147.89 245.152 146.137 246.08 144.731 247.68C143.495 249.087 142.751 250.782 142.36 252.802C142.281 252.719 142.215 252.652 142.157 252.592L142.157 252.592C142.078 252.51 142.013 252.443 141.948 252.374C140.429 250.738 138.661 249.663 136.615 249.253C137.905 252.645 139.649 255.745 142.009 258.469C144.509 261.35 147.275 263.823 150.719 265.239C152.401 265.931 154.123 266.228 155.88 265.866C158.274 265.373 159.919 263.797 161.171 261.677C161.4 261.29 161.575 261.161 161.989 261.437C162.396 261.704 162.847 261.902 163.293 262.087C164.351 262.523 165.38 262.76 166.376 262.786ZM139.213 242.955C139.474 244.744 140.015 246.435 140.82 248.043C140.847 248.105 140.876 248.166 140.905 248.227C140.975 248.378 141.046 248.529 141.104 248.688C141.233 249.052 141.397 249.064 141.678 248.869C142.976 247.964 144.213 246.988 145.239 245.732C146.667 243.987 147.508 241.992 147.396 239.564C147.279 237.084 146.445 234.825 145.35 232.642C145.181 232.309 145.024 232.433 144.874 232.55C144.844 232.573 144.815 232.596 144.786 232.615C143.469 233.493 142.258 234.505 141.231 235.759C139.563 237.794 138.804 240.15 139.213 242.955Z" fill="white"/>
<defs>
<filter id="filter0_b_172_2178" x="-4" y="129" width="339" height="223" filterUnits="userSpaceOnUse" color-interpolation-filters="sRGB">
<feFlood flood-opacity="0" result="BackgroundImageFix"/>
<feGaussianBlur in="BackgroundImageFix" stdDeviation="2"/>
<feComposite in2="SourceAlpha" operator="in" result="effect1_backgroundBlur_172_2178"/>
<feBlend mode="normal" in="SourceGraphic" in2="effect1_backgroundBlur_172_2178" result="shape"/>
</filter>
</defs>
</svg>
