<svg width="1433" height="518" viewBox="0 0 1433 518" fill="none" xmlns="http://www.w3.org/2000/svg">
<path d="M2 516C2 486.871 5.51848 462.454 37.8452 435.43C75.0512 404.327 111.999 388.872 194.028 378.031C298.997 364.158 410.698 356.205 521.115 360.653C575.345 362.838 622.548 370.486 657.455 388.036C668.009 393.342 672.846 405.513 687.539 408.837C717.407 415.594 764.934 409.625 793.795 405.94C876.993 395.319 939.943 374.396 978.781 342.222C998.978 325.491 992.226 317.719 1026.15 333.533C1041.41 340.649 1060.75 354.206 1085.04 356.703C1114.09 359.691 1144.81 338.455 1157.37 331.163C1204.84 303.608 1239.68 272.238 1281.55 243.221C1308.87 224.28 1274.47 262.23 1270.66 268.498C1263.92 279.6 1281.55 274.274 1293.71 269.024C1335.1 251.147 1337.43 226.681 1350.04 203.726C1367.04 172.746 1384.08 142.744 1410.84 112.887C1419.02 103.763 1433.29 92.5279 1430.69 82.3445C1426.26 65.0527 1208.22 112.003 1190.01 116.047C1133.81 128.53 1087.83 144.902 1107.44 173.71C1113.83 183.098 1171.25 222.73 1181.69 195.3C1206.12 131.132 1124.48 74.04 1119.6 11.78C1119.15 6.01072 1114.27 -2.33643 1097.84 4.67094C1078.13 13.0786 1073.81 27.3802 1073.52 38.3734C1072.6 72.1014 1059.85 92.2913 1010.15 118.417C969.498 139.782 944.809 182.131 877.647 192.141C845.726 196.898 810.493 180.839 787.394 174.236C712.68 152.879 638 132.905 555.04 117.89" stroke="#FF6EFD" stroke-width="3" stroke-linecap="round"/>
</svg>
