<svg width="722" height="690" viewBox="0 0 722 690" fill="none" xmlns="http://www.w3.org/2000/svg">
<path d="M615.633 525.403C616.406 531.584 625.001 525.86 626.048 522.371C635.888 489.572 613.194 450.28 596.386 424.422C550.767 354.239 492.811 295.536 426.063 245.135C426.047 245.122 406.516 226.775 404.971 233.534C403.072 241.84 409.903 253.522 412.749 260.822C423.267 287.804 437.931 342.017 413.672 365.626C381.309 397.122 289.859 210.815 281.579 195.04C251.405 137.551 224.416 78.0371 201.954 17.0708C201.75 16.5175 196.577 1.09032 196.154 2.0423C193.284 8.49855 196.885 19.6841 197.999 26.0352C200.2 38.5771 198.42 76.1557 202.218 64.0019C205.968 52.0013 174.371 27.728 167.02 22.7394C145.677 8.25675 113.139 -1.24775 89.8997 14.4342C70.8774 27.2704 65.4753 53.2156 59.1836 73.6254C50.5673 101.576 42.3422 129.645 33.7406 157.6C23.6137 190.513 14.9277 228.454 13.1753 263.064C12.9086 268.331 8.98999 318.761 16.6029 320.936C29.6061 324.652 18.3771 233.67 17.6575 230.106C13.4759 209.394 7.97943 188.941 3.55181 168.279C1.70113 159.642 1.95442 175.542 2.10169 176.32C5.62555 194.946 13.5701 212.982 19.5031 230.897C34.3582 275.754 48.8616 321.552 80.2762 358.112C96.1971 376.641 104.79 376.197 105.324 353.498C105.685 338.125 104.598 321.764 112.574 307.885C122.961 289.812 137.757 313.388 145.136 322.123C184.317 368.5 220.03 410.206 273.801 440.505C307.024 459.226 359.095 482.442 398.116 469.244C431.615 457.913 425.484 416.469 419.736 389.883C419.344 388.07 417.739 381.211 422.109 384.61C439.194 397.899 454.256 415.823 469.172 431.409C500.785 464.444 526.658 507.216 562.375 535.686C580.93 550.476 605.236 572.651 626.707 553.614C634.755 546.48 643.996 535.841 654.127 546.759C673.267 567.385 684.059 600.226 694.731 625.593C701.566 641.841 707.379 659.574 717.01 674.502C721.011 680.704 719.42 673.06 717.669 671.206C713.694 666.997 698.192 665.633 692.358 661.978C666.13 645.546 636.529 630.044 605.219 627.834C569.575 625.318 534.218 629.072 500.019 639.435C485.82 643.738 467.459 652.754 471.94 670.679C474.32 680.201 483.034 699.195 473.258 679.643" stroke="#FF6EFD" stroke-width="3" stroke-linecap="round"/>
</svg>
