<svg width="593" height="518" viewBox="0 0 593 518" fill="none" xmlns="http://www.w3.org/2000/svg">
<path d="M2.08496 516.371C2.08496 487.202 3.53424 462.752 16.8498 435.692C32.1752 404.546 47.3941 389.07 81.1823 378.214C124.42 364.323 170.43 356.358 215.911 360.813C238.249 363 257.692 370.66 272.071 388.233C276.418 393.547 278.41 405.734 284.462 409.062C296.765 415.829 316.342 409.851 328.23 406.162C362.5 395.526 388.429 374.574 404.427 342.357C412.746 325.603 409.965 317.82 423.937 333.656C430.225 340.781 438.192 354.357 448.194 356.858C460.16 359.85 472.813 338.584 477.987 331.283C497.541 303.691 511.894 272.278 529.137 243.221C540.392 224.254 526.224 262.257 524.655 268.533C521.876 279.649 529.14 274.317 534.146 269.06C551.195 251.158 552.158 226.659 557.348 203.673C564.353 172.651 571.37 142.608 582.396 112.711C585.765 103.574 591.643 92.3237 590.569 82.1265C588.747 64.8112 498.932 111.825 491.434 115.875C468.285 128.375 449.345 144.769 457.422 173.616C460.054 183.017 483.704 222.702 488.006 195.236C498.07 130.981 464.443 73.8107 462.431 11.4662C462.245 5.68902 460.233 -2.66947 453.467 4.34742C445.349 12.7665 443.57 27.0875 443.448 38.0956C443.073 71.8694 437.82 92.0867 417.346 118.248C400.603 139.642 390.433 182.048 362.769 192.072C349.62 196.836 335.108 180.755 325.593 174.143C294.818 152.757 264.057 132.756 229.885 117.72" stroke="#FF6EFD" stroke-width="3" stroke-linecap="round"/>
</svg>
