<svg width="319" height="150" viewBox="0 0 319 150" fill="none" xmlns="http://www.w3.org/2000/svg">
<path d="M78.4432 91.1499C68.4906 86.9594 74.0691 96.229 78.1796 103.015C80.9434 107.577 111.664 157.052 111.664 131.885C111.664 113.349 102.441 96.4281 89.385 83.372C74.4882 68.4752 35.5699 78.1093 41.0038 103.015C46.2137 126.893 74.06 140.981 96.1083 140.981C123.064 140.981 93.9988 93.4878 86.6166 84.163C78.0765 73.3755 59.8308 66.1566 46.277 70.8483C30.7196 76.2335 47.1346 99.698 52.3411 105.915C63.7504 119.538 72.1857 133.579 90.176 139.399C105.558 144.376 112.155 141.063 105.204 125.953C95.1855 104.172 83.6711 76.7305 63.6784 62.1476C42.13 46.4299 0.163802 58.0793 1.7188 89.568C2.82208 111.909 42.2156 121.998 59.4599 121.998" stroke="white" stroke-width="3" stroke-linecap="round"/>
<path d="M178.105 103.015C195.963 103.015 205.976 119.954 223.191 121.866C236.944 123.395 255.587 110.786 264.19 101.301C283.669 79.824 276.16 50.8084 267.354 26.686C261.077 9.4933 247.883 -6.96883 227.937 8.62541C196.876 32.9092 194.966 70.4926 221.345 99.5874C238.378 118.373 281.484 148.246 307.166 127.535C322.434 115.222 317.993 96.7001 310.725 80.8677C306.259 71.1367 296.905 51.8567 285.81 47.5149C266.588 39.9933 255.048 63.2739 254.171 78.6266C252.853 101.68 265.604 150.054 296.883 147.969C333.193 145.548 304.232 98.2883 293.851 84.5589C286.582 74.9445 261.577 51.0131 261.158 77.4401C260.892 94.2044 263.27 124.927 283.7 130.303C293.654 132.923 300.013 127.311 303.738 118.307C310.348 102.333 292.878 78.7685 283.7 66.6301C274.724 54.7587 264.288 48.4377 249.293 48.4377C230.78 48.4377 241.961 73.8249 245.338 84.2952C249.466 97.0902 279.278 108.937 284.36 91.1503C287.002 81.9011 275.149 66.2385 264.585 72.6943C259.353 75.8919 266.447 92.0652 258.785 95.8961" stroke="#FF6EFD" stroke-width="3" stroke-linecap="round"/>
</svg>
