<svg width="1507" height="467" viewBox="0 0 1507 467" fill="none" xmlns="http://www.w3.org/2000/svg">
<path d="M363.054 247.935C363.67 252.868 375.747 266.043 379.106 270.746C384.774 278.681 385.307 285.02 388.822 293.557C391.159 299.232 365.592 275.351 363.054 271.168C329.914 216.55 304.32 150.781 289.551 88.8899C287.691 81.0959 277.717 0.408942 304.336 5.24868C330.961 10.0896 350.86 86.542 355.45 103.464C369.406 154.913 372.929 208.019 385.865 259.763C386.383 261.833 395.912 299.791 401.072 281.729C411.528 245.135 427.152 211.516 431.276 173.165C436.142 127.916 440.904 81.7978 467.394 43.2674C479.129 26.1984 503.712 98.3225 505.624 104.309C525.645 166.985 528.707 231.881 537.94 296.514C540.818 316.663 549.345 376.853 549.345 356.499C549.345 316.415 550.01 276.339 547.445 236.318C544.427 189.241 541.552 134.384 568.355 92.6917C588.62 61.1684 593.844 83.2945 608.908 109.8C656.665 193.828 665.964 289.323 690.86 381C698.624 409.594 710.404 435.674 721.486 462.952C727.277 477.207 724.232 426.812 724.232 423.243C724.232 375.073 723.793 327.224 727.189 279.195C730.774 228.482 702.05 171.199 682.2 126.275C670.939 100.79 657.766 76.448 651.996 48.9702C649.87 38.8485 649.571 27.9658 646.293 18.1328C629.557 -32.0757 711.22 103.057 732.258 151.621C747.079 185.834 761.039 221.228 770.91 257.228C771.956 261.041 777.175 288.541 777.458 269.056C778.49 197.842 766.052 127.171 766.052 55.7291C766.052 32.7031 760.26 -10.4261 783.794 31.6506C826.884 108.69 850.263 197.428 845.047 285.531C842.88 322.127 836.369 328.026 807.45 307.075C751.442 266.497 693.247 225.02 628.34 199.567C598.754 187.964 600.818 205.956 604.473 229.348C607.322 247.582 605.681 279.965 632.987 272.858C657.508 266.476 679.231 251.376 703.955 244.555C754.834 230.52 809.467 226.522 861.944 223.011C908.483 219.898 954.341 219.652 999.445 206.325C1009 203.503 1049.27 185.833 1025 208.86C991.456 240.685 944.964 259.902 903.764 279.195C890.667 285.328 824.991 304.727 826.248 328.619C827.699 356.179 932.317 307.674 936.08 305.808C992.758 277.7 1040.23 237.858 1087.94 196.821C1122.72 166.915 1164.68 135.301 1174.54 87.6226C1179.17 65.271 1169.51 33.6053 1142.44 35.03C1111.2 36.6739 1105.16 116.092 1101.46 135.146C1091.72 185.324 1080.82 235.578 1074.85 286.376C1071.94 311.135 1060.7 365.886 1079.28 388.604C1079.67 389.076 1084.59 359.146 1084.99 357.344C1095.41 310.154 1108.7 263.069 1122.16 216.675C1137.95 162.255 1157.42 110.521 1185.53 61.2207C1187 58.6257 1214.66 5.30632 1219.32 6.30476C1232.17 9.05903 1234.44 63.2499 1234.95 69.4581C1239.69 126.825 1233.55 182.511 1217.63 237.797C1206.06 277.974 1190.84 317.026 1169.68 353.12C1168.32 355.443 1150.65 379.915 1154.69 383.957C1154.78 384.05 1236.28 262.256 1241.29 255.961C1263.67 227.805 1290.88 205.383 1325.98 195.765C1339.78 191.984 1361.56 184.58 1367.38 201.468C1384.63 251.48 1391.25 295.788 1384.07 349.107C1381.97 364.711 1381.61 369.053 1381.96 350.163C1382.51 319.305 1386.13 286.223 1401.81 258.918C1424.81 218.861 1452.17 232.745 1486.72 246.245C1514.5 257.102 1504.01 253.544 1499.81 236.74C1496.93 225.218 1479.44 235.36 1472.78 237.374C1420.76 253.091 1366.85 258.453 1312.89 262.931C1162.28 275.43 1011.91 278.35 860.888 278.35C859.316 278.35 765.031 277.78 780.415 297.359C789.676 309.147 819.51 304.876 831.951 304.963C835.939 304.991 881.101 308.379 860.677 303.273C764.466 279.221 680.07 230.092 591.588 187.527C542.806 164.061 491.484 143.927 437.824 135.146C407.607 130.201 389.322 130.449 386.076 163.449C380.884 216.236 366.856 270.035 366.856 322.916C366.856 336.913 365.012 336.764 357.562 324.395C330.69 279.776 310.544 231.968 280.257 189.217C241.625 134.687 194.273 86.4784 144.024 42.6338C131.894 32.0502 103.619 1.81112 84.2498 2.50289C81.0122 2.61852 102.539 41.4178 103.048 42.4225C125.479 86.7371 139.354 134.561 157.753 180.557C168.39 207.151 181.016 232.246 194.082 257.651C199.847 268.861 200.439 266.414 195.138 256.806C181.201 231.546 160.1 210.341 139.588 190.484C104.619 156.633 67.7325 119.118 23.4198 97.5497C22.0308 96.8736 -6.23528 82.1649 3.56561 93.7478C28.8194 123.593 52.9586 153.953 76.2236 185.415C108.812 229.485 139.619 274.553 180.775 311.299C203.108 331.239 239.387 365.37 272.442 365.37C282.93 365.37 272.12 344.101 268.007 340.869C257.104 332.303 245.211 320.193 237.592 308.765" stroke="#00DE09" stroke-width="3" stroke-linecap="round"/>
</svg>
