<svg width="1433" height="732" viewBox="0 0 1433 732" fill="none" xmlns="http://www.w3.org/2000/svg">
<path d="M2 516C2 486.871 5.51848 462.454 37.8452 435.43C75.0512 404.327 111.999 388.872 194.028 378.031C298.997 364.158 410.698 356.205 521.115 360.653C575.345 362.838 622.548 370.486 657.455 388.036C668.009 393.342 672.846 405.513 687.539 408.837C717.407 415.594 764.934 409.625 793.795 405.94C876.993 395.319 939.943 374.396 978.781 342.222C998.978 325.491 992.226 317.719 1026.15 333.533C1041.41 340.649 1060.75 354.206 1085.04 356.703C1114.09 359.691 1144.81 338.455 1157.37 331.163C1204.84 303.608 1239.68 272.238 1281.55 243.221C1308.87 224.28 1274.47 262.23 1270.66 268.498C1263.92 279.6 1281.55 274.274 1293.71 269.024C1335.1 251.147 1337.43 226.681 1350.04 203.726C1367.04 172.746 1384.08 142.744 1410.84 112.887C1419.02 103.763 1433.29 92.5279 1430.69 82.3445C1426.26 65.0527 1208.22 112.003 1190.01 116.047C1133.81 128.53 1087.83 144.902 1107.44 173.71C1113.83 183.098 1171.25 222.73 1181.69 195.3C1206.12 131.132 1124.48 74.04 1119.6 11.78C1119.15 6.01072 1114.27 -2.33643 1097.84 4.67094C1078.13 13.0786 1073.81 27.3802 1073.52 38.3734C1072.6 72.1014 1059.85 92.2913 1010.15 118.417C969.498 139.782 944.809 182.131 877.647 192.141C845.726 196.898 810.493 180.839 787.394 174.236C712.68 152.879 638 132.905 555.04 117.89" stroke="#FF6EFD" stroke-width="3" stroke-linecap="round"/>
<path d="M869.633 567.403C870.406 573.584 879.001 567.86 880.048 564.371C889.888 531.572 867.194 492.28 850.386 466.422C804.767 396.239 746.811 337.536 680.063 287.135C680.047 287.122 660.516 268.775 658.971 275.534C657.072 283.84 663.903 295.522 666.749 302.822C677.267 329.804 691.931 384.017 667.672 407.626C635.309 439.122 543.859 252.815 535.579 237.04C505.405 179.551 478.416 120.037 455.954 59.0708C455.75 58.5175 450.577 43.0903 450.154 44.0423C447.284 50.4986 450.885 61.6841 451.999 68.0352C454.2 80.5771 452.42 118.156 456.218 106.002C459.968 94.0013 428.371 69.728 421.02 64.7394C399.677 50.2568 367.139 40.7523 343.9 56.4342C324.877 69.2704 319.475 95.2156 313.184 115.625C304.567 143.576 296.342 171.645 287.741 199.6C277.614 232.513 268.928 270.454 267.175 305.064C266.909 310.331 262.99 360.761 270.603 362.936C283.606 366.652 272.377 275.67 271.658 272.106C267.476 251.394 261.979 230.941 257.552 210.279C255.701 201.642 255.954 217.542 256.102 218.32C259.626 236.946 267.57 254.982 273.503 272.897C288.358 317.754 302.862 363.552 334.276 400.112C350.197 418.641 358.79 418.197 359.324 395.498C359.685 380.125 358.598 363.764 366.574 349.885C376.961 331.812 391.757 355.388 399.136 364.123C438.317 410.5 474.03 452.206 527.801 482.505C561.024 501.226 613.095 524.442 652.116 511.244C685.615 499.913 679.484 458.469 673.736 431.883C673.344 430.07 671.739 423.211 676.109 426.61C693.194 439.899 708.256 457.823 723.172 473.409C754.785 506.444 780.658 549.216 816.375 577.686C834.93 592.476 859.236 614.651 880.707 595.614C888.755 588.48 897.996 577.841 908.127 588.759C927.267 609.385 938.059 642.226 948.731 667.593C955.566 683.841 961.379 701.574 971.01 716.502C975.011 722.704 973.42 715.06 971.669 713.206C967.694 708.997 952.192 707.633 946.358 703.978C920.13 687.546 890.529 672.044 859.219 669.834C823.575 667.318 788.218 671.072 754.019 681.435C739.82 685.738 721.459 694.754 725.94 712.679C728.32 722.201 737.034 741.195 727.258 721.643" stroke="#FF6EFD" stroke-width="3" stroke-linecap="round"/>
</svg>
