<svg width="114" height="91" viewBox="0 0 114 91" fill="none" xmlns="http://www.w3.org/2000/svg">
<path d="M78.4432 38.1499C68.4906 33.9594 74.0691 43.229 78.1796 50.0145C80.9434 54.5771 111.664 104.052 111.664 78.885C111.664 60.3491 102.441 43.4281 89.385 30.372C74.4882 15.4752 35.5699 25.1093 41.0038 50.0145C46.2137 73.893 74.06 87.9812 96.1083 87.9812C123.064 87.9812 93.9988 40.4878 86.6166 31.163C78.0765 20.3755 59.8308 13.1566 46.277 17.8483C30.7196 23.2335 47.1346 46.698 52.3411 52.9148C63.7504 66.5377 72.1857 80.5789 90.176 86.3993C105.558 91.3757 112.155 88.0632 105.204 72.9527C95.1855 51.1724 83.6711 23.7305 63.6784 9.14755C42.13 -6.57009 0.163802 5.07926 1.7188 36.568C2.82208 58.9094 42.2156 68.9979 59.4599 68.9979" stroke="white" stroke-width="3" stroke-linecap="round"/>
</svg>
