<svg width="209" height="228" viewBox="0 0 209 228" fill="none" xmlns="http://www.w3.org/2000/svg">
<path d="M4.50028 81.5003C-9.49972 46.5003 53.0006 -41.4999 95.0006 23.5001C106.501 23.5001 104.701 75.0003 125.501 49.0002C150.373 17.9102 205.901 16.5612 208.484 16.5027C208.49 16.5009 208.495 16.5 208.501 16.5C208.609 16.5 208.601 16.5 208.484 16.5027C206.154 17.1794 139.963 147 125.501 147C117.667 162.5 98.3006 199.5 83.5006 223.5C68.7006 247.5 40.9995 167 4.49952 147C-11.5003 77 27.0003 117.9 53.0006 123.5C85.501 130.5 18.5003 116.5 4.50028 81.5003Z" fill="#FF6EFD"/>
</svg>
